<svg width="33" height="36" viewBox="0 0 33 36" fill="none" xmlns="http://www.w3.org/2000/svg">
<path d="M23.8333 26.932C24.5972 26.932 25.2462 26.6672 25.7803 26.1376C26.3157 25.6093 26.5833 24.9673 26.5833 24.2116C26.5833 23.4559 26.3157 22.8139 25.7803 22.2855C25.2462 21.756 24.5972 21.4912 23.8333 21.4912C23.0694 21.4912 22.4204 21.756 21.8863 22.2855C21.351 22.8139 21.0833 23.4559 21.0833 24.2116C21.0833 24.9673 21.351 25.6093 21.8863 26.1376C22.4204 26.6672 23.0694 26.932 23.8333 26.932ZM23.8333 32.3728C24.7806 32.3728 25.6514 32.1533 26.4458 31.7145C27.2403 31.2768 27.8819 30.6952 28.3708 29.9698C27.6986 29.5768 26.9806 29.2746 26.2167 29.063C25.4528 28.8514 24.6583 28.7456 23.8333 28.7456C23.0083 28.7456 22.2139 28.8514 21.45 29.063C20.6861 29.2746 19.9681 29.5768 19.2958 29.9698C19.7847 30.6952 20.4264 31.2768 21.2208 31.7145C22.0153 32.1533 22.8861 32.3728 23.8333 32.3728ZM23.8333 36C21.2972 36 19.1357 35.1162 17.3488 33.3485C15.5607 31.5796 14.6667 29.4408 14.6667 26.932C14.6667 24.4232 15.5607 22.2843 17.3488 20.5155C19.1357 18.7478 21.2972 17.864 23.8333 17.864C26.3694 17.864 28.5316 18.7478 30.3197 20.5155C32.1066 22.2843 33 24.4232 33 26.932C33 29.4408 32.1066 31.5796 30.3197 33.3485C28.5316 35.1162 26.3694 36 23.8333 36ZM14.6667 35.864H14.2303C14.0934 35.864 13.9486 35.8338 13.7958 35.7733C9.79305 34.5642 6.49306 32.1159 3.89583 28.4282C1.29861 24.7406 0 20.6751 0 16.2317V7.66247C0 6.9068 0.221833 6.2267 0.6655 5.62217C1.10794 5.01763 1.68056 4.57934 2.38333 4.3073L13.3833 0.2267C13.8111 0.0755667 14.2389 0 14.6667 0C15.0944 0 15.5222 0.0755667 15.95 0.2267L26.95 4.3073C27.6528 4.57934 28.226 5.01763 28.6697 5.62217C29.1121 6.2267 29.3333 6.9068 29.3333 7.66247V15.461C28.4472 15.068 27.5538 14.7657 26.653 14.5542C25.751 14.3426 24.8111 14.2368 23.8333 14.2368C20.2889 14.2368 17.2639 15.4761 14.7583 17.9547C12.2528 20.4332 11 23.4257 11 26.932C11 28.6549 11.3056 30.2648 11.9167 31.7616C12.5278 33.2572 13.4597 34.6247 14.7125 35.864H14.6667Z" fill="white"/>
</svg>
