<svg width="24" height="24" viewBox="0 0 24 24" fill="none" xmlns="http://www.w3.org/2000/svg">
<rect x="1" y="1" width="22" height="22" rx="3" stroke="black" stroke-width="2"/>
<path d="M11.2499 14.7497L16.6356 6.37245C16.8944 6.12416 17.2237 6.00001 17.6237 6.00001C18.0236 6.00001 18.353 6.12416 18.6118 6.37245C18.8706 6.62073 19 6.93674 19 7.32046C19 7.70418 18.8706 8.02018 18.6118 8.26847L12.238 17.5937C11.9557 17.8646 11.6263 18 11.2499 18C10.8734 18 10.5441 17.8646 10.2617 17.5937L5.38819 13.8899C5.1294 13.6416 5 13.3256 5 12.9419C5 12.5582 5.1294 12.2422 5.38819 11.9939C5.64698 11.7456 5.97636 11.6215 6.37631 11.6215C6.77626 11.6215 7.10564 11.7456 7.36443 11.9939L11.2499 14.7497Z" fill="black"/>
</svg>
