<svg width="10" height="8" viewBox="0 0 10 8" fill="none" xmlns="http://www.w3.org/2000/svg">
<path d="M4.46419 5.83312L8.31112 0.248297C8.49597 0.0827707 8.73124 7.96553e-06 9.01692 7.96553e-06C9.3026 7.96553e-06 9.53787 0.0827707 9.72272 0.248297C9.90757 0.413823 10 0.624492 10 0.880305C10 1.13612 9.90757 1.34679 9.72272 1.51231L5.16999 7.72914C4.96834 7.90971 4.73307 8 4.46419 8C4.19531 8 3.96005 7.90971 3.75839 7.72914L0.277278 5.25994C0.0924259 5.09442 0 4.88375 0 4.62793C0 4.37212 0.0924259 4.16145 0.277278 3.99592C0.462131 3.8304 0.697398 3.74764 0.983079 3.74764C1.26876 3.74764 1.50403 3.8304 1.68888 3.99592L4.46419 5.83312Z" fill="black"/>
</svg>
