<svg width="14" height="12" viewBox="0 0 14 12" fill="none" xmlns="http://www.w3.org/2000/svg">
<path d="M6.24987 8.74967L11.6356 0.372445C11.8944 0.124156 12.2237 1.19483e-05 12.6237 1.19483e-05C13.0236 1.19483e-05 13.353 0.124156 13.6118 0.372445C13.8706 0.620734 14 0.936738 14 1.32046C14 1.70418 13.8706 2.02018 13.6118 2.26847L7.23799 11.5937C6.95567 11.8646 6.62629 12 6.24987 12C5.87344 12 5.54407 11.8646 5.26175 11.5937L0.38819 7.88992C0.129396 7.64163 0 7.32562 0 6.9419C0 6.55818 0.129396 6.24218 0.38819 5.99389C0.646983 5.7456 0.976357 5.62145 1.37631 5.62145C1.77626 5.62145 2.10564 5.7456 2.36443 5.99389L6.24987 8.74967Z" fill="black"/>
</svg>
