<svg width="16" height="16" viewBox="0 0 16 16" fill="none" xmlns="http://www.w3.org/2000/svg">
<path d="M2.4 15.2C1.95817 15.6418 1.24183 15.6418 0.800001 15.2C0.358173 14.7582 0.358172 14.0418 0.8 13.6L4.98579 9.41421C5.76684 8.63317 5.76684 7.36684 4.98579 6.58579L0.8 2.4C0.358172 1.95817 0.358172 1.24183 0.8 0.8C1.24183 0.358172 1.95817 0.358172 2.4 0.8L6.58579 4.98579C7.36683 5.76684 8.63317 5.76684 9.41421 4.98579L13.6 0.8C14.0418 0.358172 14.7582 0.358172 15.2 0.8C15.6418 1.24183 15.6418 1.95817 15.2 2.4L11.0142 6.58579C10.2332 7.36683 10.2332 8.63317 11.0142 9.41421L15.2 13.6C15.6418 14.0418 15.6418 14.7582 15.2 15.2C14.7582 15.6418 14.0418 15.6418 13.6 15.2L9.41421 11.0142C8.63317 10.2332 7.36684 10.2332 6.58579 11.0142L2.4 15.2Z" fill="#D9D9D9"/>
</svg>
