<svg width="6" height="24" viewBox="0 0 6 24" fill="none" xmlns="http://www.w3.org/2000/svg">
<path d="M3 9.12944C2.60604 9.12944 2.21593 9.20369 1.85195 9.34795C1.48797 9.49221 1.15726 9.70365 0.87868 9.97021C0.600104 10.2368 0.379126 10.5532 0.228362 10.9015C0.0775974 11.2498 3.10225e-07 11.623 3.10225e-07 12C3.10225e-07 12.377 0.0775974 12.7502 0.228362 13.0985C0.379126 13.4468 0.600104 13.7632 0.87868 14.0298C1.15726 14.2963 1.48797 14.5078 1.85195 14.652C2.21593 14.7963 2.60604 14.8706 3 14.8706C3.79565 14.8704 4.55864 14.5678 5.12112 14.0293C5.6836 13.4909 5.9995 12.7607 5.99932 11.9993C5.99914 11.238 5.68289 10.508 5.12016 9.96975C4.55742 9.43154 3.79429 9.12927 2.99864 9.12944H3ZM3 5.73851C3.39379 5.73834 3.78368 5.66395 4.14743 5.5196C4.51117 5.37525 4.84164 5.16376 5.11996 4.8972C5.39828 4.63064 5.61901 4.31424 5.76954 3.96606C5.92007 3.61788 5.99745 3.24475 5.99727 2.86795C5.9971 2.49115 5.91936 2.11808 5.7685 1.77003C5.61763 1.42198 5.39661 1.10578 5.11803 0.839463C4.83945 0.573149 4.50879 0.361945 4.14491 0.21791C3.78103 0.0738748 3.39106 -0.000170974 2.99727 2.96438e-07C2.20199 0.000346205 1.43941 0.302973 0.877317 0.841307C0.315219 1.37964 -0.000361184 2.10958 3.10225e-07 2.87056C0.000361805 3.63153 0.316635 4.3612 0.879244 4.89904C1.44185 5.43689 2.20471 5.73885 3 5.73851ZM3 18.2589C2.20435 18.2589 1.44129 18.5613 0.87868 19.0997C0.316071 19.638 3.10225e-07 20.3681 3.10225e-07 21.1294C3.10225e-07 21.8908 0.316071 22.6209 0.87868 23.1592C1.44129 23.6976 2.20435 24 3 24C3.79565 24 4.55871 23.6976 5.12132 23.1592C5.68393 22.6209 6 21.8908 6 21.1294C6 20.3681 5.68393 19.638 5.12132 19.0997C4.55871 18.5613 3.79565 18.2589 3 18.2589Z" fill="black"/>
</svg>
