<svg width="32" height="36" viewBox="0 0 32 36" fill="none" xmlns="http://www.w3.org/2000/svg">
<path d="M0 18C0 18.4774 0.210714 18.9352 0.585787 19.2728C0.96086 19.6104 1.46957 19.8 2 19.8H17.18L12.58 23.922C12.3925 24.0893 12.2438 24.2884 12.1422 24.5078C12.0407 24.7271 11.9884 24.9624 11.9884 25.2C11.9884 25.4376 12.0407 25.6729 12.1422 25.8922C12.2438 26.1116 12.3925 26.3107 12.58 26.478C12.7659 26.6467 12.9871 26.7806 13.2308 26.872C13.4746 26.9634 13.736 27.0104 14 27.0104C14.264 27.0104 14.5254 26.9634 14.7692 26.872C15.0129 26.7806 15.2341 26.6467 15.42 26.478L23.42 19.278C23.6021 19.1068 23.7448 18.905 23.84 18.684C24.04 18.2458 24.04 17.7542 23.84 17.316C23.7448 17.095 23.6021 16.8932 23.42 16.722L15.42 9.522C15.2335 9.35417 15.0121 9.22104 14.7685 9.13021C14.5249 9.03938 14.2637 8.99263 14 8.99263C13.7363 8.99263 13.4751 9.03938 13.2315 9.13021C12.9879 9.22104 12.7665 9.35417 12.58 9.522C12.3935 9.68983 12.2456 9.88907 12.1447 10.1084C12.0438 10.3276 11.9918 10.5627 11.9918 10.8C11.9918 11.0373 12.0438 11.2724 12.1447 11.4916C12.2456 11.7109 12.3935 11.9102 12.58 12.078L17.18 16.2H2C1.46957 16.2 0.96086 16.3896 0.585787 16.7272C0.210714 17.0648 0 17.5226 0 18V18ZM26 0H6C4.4087 0 2.88258 0.568927 1.75736 1.58162C0.632141 2.59432 0 3.96783 0 5.4V10.8C0 11.2774 0.210714 11.7352 0.585787 12.0728C0.96086 12.4104 1.46957 12.6 2 12.6C2.53043 12.6 3.03914 12.4104 3.41421 12.0728C3.78929 11.7352 4 11.2774 4 10.8V5.4C4 4.92261 4.21071 4.46477 4.58579 4.12721C4.96086 3.78964 5.46957 3.6 6 3.6H26C26.5304 3.6 27.0391 3.78964 27.4142 4.12721C27.7893 4.46477 28 4.92261 28 5.4V30.6C28 31.0774 27.7893 31.5352 27.4142 31.8728C27.0391 32.2104 26.5304 32.4 26 32.4H6C5.46957 32.4 4.96086 32.2104 4.58579 31.8728C4.21071 31.5352 4 31.0774 4 30.6V25.2C4 24.7226 3.78929 24.2648 3.41421 23.9272C3.03914 23.5896 2.53043 23.4 2 23.4C1.46957 23.4 0.96086 23.5896 0.585787 23.9272C0.210714 24.2648 0 24.7226 0 25.2V30.6C0 32.0322 0.632141 33.4057 1.75736 34.4184C2.88258 35.4311 4.4087 36 6 36H26C27.5913 36 29.1174 35.4311 30.2426 34.4184C31.3679 33.4057 32 32.0322 32 30.6V5.4C32 3.96783 31.3679 2.59432 30.2426 1.58162C29.1174 0.568927 27.5913 0 26 0Z" fill="white"/>
</svg>
