<svg width="36" height="24" viewBox="0 0 36 24" fill="none" xmlns="http://www.w3.org/2000/svg">
<path d="M18.75 11.925C19.475 11.125 20.0315 10.2125 20.4195 9.1875C20.8065 8.1625 21 7.1 21 6C21 4.9 20.8065 3.8375 20.4195 2.8125C20.0315 1.7875 19.475 0.875 18.75 0.0750003C20.25 0.275 21.5 0.9375 22.5 2.0625C23.5 3.1875 24 4.5 24 6C24 7.5 23.5 8.8125 22.5 9.9375C21.5 11.0625 20.25 11.725 18.75 11.925ZM26.2875 24C26.5125 23.825 26.6875 23.606 26.8125 23.343C26.9375 23.081 27 22.7875 27 22.4625V19.5C27 18.6 26.8 17.744 26.4 16.932C26 16.119 25.475 15.4 24.825 14.775C26.1 15.225 27.2815 15.806 28.3695 16.518C29.4565 17.231 30 18.225 30 19.5V22.5C30 22.925 29.856 23.281 29.568 23.568C29.281 23.856 28.925 24 28.5 24H26.2875ZM31.5 13.5C31.075 13.5 30.719 13.356 30.432 13.068C30.144 12.781 30 12.425 30 12V10.5H28.5C28.075 10.5 27.719 10.356 27.432 10.068C27.144 9.781 27 9.425 27 9C27 8.575 27.144 8.2185 27.432 7.9305C27.719 7.6435 28.075 7.5 28.5 7.5H30V6C30 5.575 30.144 5.2185 30.432 4.9305C30.719 4.6435 31.075 4.5 31.5 4.5C31.925 4.5 32.281 4.6435 32.568 4.9305C32.856 5.2185 33 5.575 33 6V7.5H34.5C34.925 7.5 35.281 7.6435 35.568 7.9305C35.856 8.2185 36 8.575 36 9C36 9.425 35.856 9.781 35.568 10.068C35.281 10.356 34.925 10.5 34.5 10.5H33V12C33 12.425 32.856 12.781 32.568 13.068C32.281 13.356 31.925 13.5 31.5 13.5ZM12 12C10.35 12 8.9375 11.4125 7.7625 10.2375C6.5875 9.0625 6 7.65 6 6C6 4.35 6.5875 2.9375 7.7625 1.7625C8.9375 0.5875 10.35 0 12 0C13.65 0 15.0625 0.5875 16.2375 1.7625C17.4125 2.9375 18 4.35 18 6C18 7.65 17.4125 9.0625 16.2375 10.2375C15.0625 11.4125 13.65 12 12 12ZM1.5 24C1.075 24 0.719 23.856 0.432 23.568C0.144 23.281 0 22.925 0 22.5V19.8C0 18.95 0.219 18.1685 0.657 17.4555C1.094 16.7435 1.675 16.2 2.4 15.825C3.95 15.05 5.525 14.4685 7.125 14.0805C8.725 13.6935 10.35 13.5 12 13.5C13.65 13.5 15.275 13.6935 16.875 14.0805C18.475 14.4685 20.05 15.05 21.6 15.825C22.325 16.2 22.906 16.7435 23.343 17.4555C23.781 18.1685 24 18.95 24 19.8V22.5C24 22.925 23.8565 23.281 23.5695 23.568C23.2815 23.856 22.925 24 22.5 24H1.5Z" fill="black"/>
</svg>
