<svg width="2607" height="2607" viewBox="0 0 2607 2607" fill="none" xmlns="http://www.w3.org/2000/svg">
<path d="M1327.25 2279.27L1169.74 2135.89C610.324 1628.61 241 1292.95 241 883.438C241 547.786 503.872 286 838.436 286C1027.44 286 1208.85 373.986 1327.25 511.94C1445.65 373.986 1627.05 286 1816.06 286C2150.62 286 2413.5 547.786 2413.5 883.438C2413.5 1292.95 2044.17 1628.61 1484.75 2135.89L1327.25 2279.27Z" fill="#B94343"/>
<path d="M1303.5 2319.15L1145.99 2175.76C586.574 1668.48 217.25 1332.83 217.25 923.313C217.25 587.661 480.122 325.875 814.686 325.875C1003.69 325.875 1185.1 413.861 1303.5 551.815C1421.9 413.861 1603.3 325.875 1792.31 325.875C2126.87 325.875 2389.75 587.661 2389.75 923.313C2389.75 1332.83 2020.42 1668.48 1461 2175.76L1303.5 2319.15Z" fill="#D96363"/>
<path d="M586.566 1147.19L512.961 1052.31H522.113L590.305 1140.23H616.086L616.859 1147.19H586.566ZM592.496 1146.67L517.73 1240H508.449L588.242 1140.61L592.496 1146.67ZM621.371 1052.31V1240H614.41V1052.31H621.371ZM722.562 1052.31L648.957 1147.19H618.664L619.566 1140.23H645.348L713.539 1052.31H722.562ZM717.922 1240L643.027 1146.67L647.281 1140.61L727.203 1240H717.922ZM792.688 1226.59L840.898 1100.52H848.633L786.629 1263.2C785.512 1266.12 784.137 1269.48 782.504 1273.26C780.957 1277.04 778.852 1280.69 776.188 1284.21C773.523 1287.74 770.043 1290.62 765.746 1292.85C761.535 1295.17 756.25 1296.33 749.891 1296.33C748.516 1296.33 746.711 1296.2 744.477 1295.95C742.242 1295.69 740.609 1295.34 739.578 1294.91L739.449 1288.34C740.738 1288.68 742.414 1288.94 744.477 1289.11C746.539 1289.37 748 1289.5 748.859 1289.5C754.617 1289.5 759.387 1288.3 763.168 1285.89C767.035 1283.57 770.258 1280.3 772.836 1276.09C775.414 1271.97 777.691 1267.24 779.668 1261.91L792.688 1226.59ZM740.094 1100.52L792.816 1231.75L795.008 1238.71L789.465 1242.71L732.488 1100.52H740.094ZM882.148 1227.62L968.387 1100.52H975.477V1240H968.387V1112.9L882.148 1240H875.188V1100.52H882.148V1227.62ZM953.305 1050.89H960.266C960.266 1057.17 958.848 1062.71 956.012 1067.52C953.176 1072.34 949.051 1076.12 943.637 1078.87C938.309 1081.53 931.906 1082.86 924.43 1082.86C913.258 1082.86 904.449 1079.9 898.004 1073.97C891.645 1067.95 888.465 1060.26 888.465 1050.89H895.426C895.426 1057.68 897.574 1063.53 901.871 1068.43C906.254 1073.24 913.773 1075.64 924.43 1075.64C934.656 1075.64 942.004 1073.2 946.473 1068.3C951.027 1063.31 953.305 1057.51 953.305 1050.89ZM1026.78 1100.52V1240H1019.69V1100.52H1026.78ZM1118.95 1100.52L1057.07 1171.81H1023.95L1024.33 1164.98H1053.59L1108.89 1100.52H1118.95ZM1116.63 1240L1051.79 1171.29L1055.91 1164.72L1127.07 1240H1116.63ZM1137.38 1172.97V1167.55C1137.38 1157.33 1138.84 1147.96 1141.77 1139.45C1144.77 1130.95 1148.94 1123.6 1154.27 1117.41C1159.68 1111.22 1166.13 1106.45 1173.61 1103.1C1181.08 1099.66 1189.33 1097.95 1198.36 1097.95C1207.46 1097.95 1215.76 1099.66 1223.23 1103.1C1230.71 1106.45 1237.16 1111.22 1242.57 1117.41C1247.98 1123.6 1252.15 1130.95 1255.07 1139.45C1258 1147.96 1259.46 1157.33 1259.46 1167.55V1172.97C1259.46 1183.2 1258 1192.56 1255.07 1201.07C1252.15 1209.58 1247.98 1216.93 1242.57 1223.11C1237.24 1229.3 1230.84 1234.11 1223.36 1237.55C1215.89 1240.9 1207.64 1242.58 1198.61 1242.58C1189.5 1242.58 1181.21 1240.9 1173.73 1237.55C1166.26 1234.11 1159.81 1229.3 1154.4 1223.11C1148.98 1216.93 1144.77 1209.58 1141.77 1201.07C1138.84 1192.56 1137.38 1183.2 1137.38 1172.97ZM1144.34 1167.55V1172.97C1144.34 1181.3 1145.55 1189.25 1147.95 1196.82C1150.45 1204.29 1154.01 1210.95 1158.65 1216.8C1163.29 1222.64 1168.96 1227.24 1175.67 1230.59C1182.37 1233.94 1190.02 1235.62 1198.61 1235.62C1207.12 1235.62 1214.68 1233.94 1221.3 1230.59C1228 1227.24 1233.68 1222.64 1238.32 1216.8C1242.96 1210.95 1246.48 1204.29 1248.89 1196.82C1251.29 1189.25 1252.5 1181.3 1252.5 1172.97V1167.55C1252.5 1159.39 1251.29 1151.57 1248.89 1144.09C1246.48 1136.62 1242.91 1129.96 1238.19 1124.11C1233.55 1118.18 1227.88 1113.5 1221.17 1110.06C1214.47 1106.62 1206.86 1104.91 1198.36 1104.91C1189.85 1104.91 1182.24 1106.62 1175.54 1110.06C1168.92 1113.5 1163.25 1118.18 1158.52 1124.11C1153.88 1129.96 1150.36 1136.62 1147.95 1144.09C1145.55 1151.57 1144.34 1159.39 1144.34 1167.55ZM1351.37 1172.84H1299.16L1298.9 1165.88H1345.05C1354.42 1165.88 1362.24 1164.76 1368.51 1162.53C1374.87 1160.29 1379.68 1156.98 1382.95 1152.6C1386.21 1148.13 1387.85 1142.68 1387.85 1136.23C1387.85 1131.25 1386.86 1126.95 1384.88 1123.34C1382.99 1119.73 1380.11 1116.77 1376.25 1114.45C1372.46 1112.12 1367.74 1110.41 1362.07 1109.29C1356.39 1108.17 1349.86 1107.61 1342.47 1107.61H1301.48V1240H1294.52V1100.52H1342.47C1350.55 1100.52 1357.81 1101.25 1364.26 1102.71C1370.7 1104.18 1376.2 1106.37 1380.76 1109.29C1385.31 1112.21 1388.79 1115.95 1391.2 1120.5C1393.61 1125.06 1394.81 1130.43 1394.81 1136.62C1394.81 1140.91 1394.04 1144.95 1392.49 1148.73C1391.03 1152.43 1388.84 1155.78 1385.91 1158.79C1382.99 1161.71 1379.43 1164.12 1375.21 1166.01C1371 1167.81 1366.15 1168.93 1360.65 1169.36L1351.37 1172.84ZM1351.37 1240H1298.13V1233.04H1351.37C1360.13 1233.04 1367.7 1231.88 1374.05 1229.56C1380.5 1227.24 1385.44 1223.8 1388.88 1219.25C1392.32 1214.61 1394.04 1208.98 1394.04 1202.36C1394.04 1196.52 1392.32 1191.4 1388.88 1187.02C1385.44 1182.55 1380.5 1179.07 1374.05 1176.58C1367.7 1174.09 1360.13 1172.84 1351.37 1172.84H1316.3L1316.56 1165.88H1362.97L1367.35 1168.46C1373.8 1169.14 1379.51 1171.08 1384.5 1174.26C1389.57 1177.44 1393.56 1181.48 1396.48 1186.38C1399.41 1191.19 1400.87 1196.47 1400.87 1202.23C1400.87 1208.5 1399.66 1214 1397.26 1218.73C1394.85 1223.37 1391.46 1227.28 1387.07 1230.46C1382.69 1233.64 1377.45 1236.05 1371.35 1237.68C1365.33 1239.23 1358.67 1240 1351.37 1240ZM1525.52 1213.83V1141.77C1525.52 1134.04 1523.84 1127.42 1520.49 1121.92C1517.23 1116.42 1512.41 1112.21 1506.05 1109.29C1499.78 1106.37 1492.09 1104.91 1482.98 1104.91C1474.56 1104.91 1466.95 1106.41 1460.16 1109.42C1453.46 1112.34 1448.13 1116.38 1444.18 1121.54C1440.31 1126.69 1438.38 1132.49 1438.38 1138.94L1431.42 1138.68C1431.42 1133.27 1432.66 1128.11 1435.16 1123.21C1437.73 1118.31 1441.3 1113.97 1445.86 1110.19C1450.5 1106.41 1455.95 1103.45 1462.23 1101.3C1468.59 1099.06 1475.5 1097.95 1482.98 1097.95C1492.69 1097.95 1501.24 1099.58 1508.63 1102.84C1516.11 1106.11 1521.95 1111.01 1526.16 1117.54C1530.38 1124.07 1532.48 1132.23 1532.48 1142.03V1211.9C1532.48 1216.88 1532.78 1221.91 1533.38 1226.98C1534.07 1232.05 1534.97 1236 1536.09 1238.84V1240H1528.1C1527.24 1236.65 1526.59 1232.61 1526.16 1227.88C1525.73 1223.07 1525.52 1218.39 1525.52 1213.83ZM1528.61 1162.14L1528.87 1169.23H1492.52C1483.5 1169.23 1475.42 1170.13 1468.29 1171.94C1461.15 1173.66 1455.09 1176.11 1450.11 1179.29C1445.12 1182.46 1441.3 1186.25 1438.64 1190.63C1435.97 1195.01 1434.64 1199.87 1434.64 1205.2C1434.64 1210.78 1436.14 1215.89 1439.15 1220.54C1442.25 1225.18 1446.5 1228.87 1451.91 1231.62C1457.33 1234.37 1463.56 1235.75 1470.61 1235.75C1480.4 1235.75 1489.08 1234.16 1496.64 1230.98C1504.21 1227.71 1510.61 1223.16 1515.85 1217.31C1521.09 1211.47 1525.09 1204.55 1527.84 1196.56L1530.93 1203C1529.3 1207.82 1526.85 1212.59 1523.59 1217.31C1520.41 1221.95 1516.32 1226.21 1511.34 1230.07C1506.36 1233.86 1500.47 1236.91 1493.68 1239.23C1486.98 1241.46 1479.29 1242.58 1470.61 1242.58C1461.93 1242.58 1454.36 1240.99 1447.92 1237.81C1441.47 1234.54 1436.49 1230.07 1432.96 1224.4C1429.44 1218.64 1427.68 1212.07 1427.68 1204.68C1427.68 1198.49 1429.14 1192.82 1432.06 1187.66C1434.98 1182.42 1439.2 1177.91 1444.7 1174.13C1450.28 1170.26 1457.07 1167.3 1465.06 1165.23C1473.05 1163.17 1482.08 1162.14 1492.13 1162.14H1528.61ZM1773.41 1052.31V1059.27H1675.57V1052.31H1773.41ZM1777.4 1052.31V1240H1770.44V1052.31H1777.4ZM1672.6 1052.31H1679.56L1674.15 1134.04C1673.12 1149.42 1671.96 1162.96 1670.67 1174.64C1669.38 1186.25 1667.7 1196.21 1665.64 1204.55C1663.58 1212.8 1660.87 1219.55 1657.52 1224.79C1654.25 1230.03 1650.13 1233.9 1645.14 1236.39C1640.16 1238.8 1634.1 1240 1626.97 1240H1622.84V1233.04H1627.36C1632.68 1233.04 1637.32 1232.18 1641.28 1230.46C1645.23 1228.66 1648.58 1225.65 1651.33 1221.44C1654.17 1217.14 1656.57 1211.25 1658.55 1203.78C1660.53 1196.21 1662.2 1186.72 1663.58 1175.29C1664.95 1163.86 1666.16 1150.11 1667.19 1134.04L1672.6 1052.31ZM1821.49 1233.68C1821.49 1231.71 1822.18 1230.03 1823.55 1228.66C1824.93 1227.2 1826.6 1226.46 1828.58 1226.46C1830.55 1226.46 1832.23 1227.15 1833.61 1228.53C1835.07 1229.9 1835.8 1231.62 1835.8 1233.68C1835.8 1235.66 1835.07 1237.34 1833.61 1238.71C1832.23 1240.09 1830.55 1240.77 1828.58 1240.77C1826.6 1240.77 1824.93 1240.09 1823.55 1238.71C1822.18 1237.34 1821.49 1235.66 1821.49 1233.68ZM2018.84 1052.31V1240H2011.88V1059.27H1892V1240H1885.04V1052.31H2018.84ZM2063.57 1233.68C2063.57 1231.71 2064.26 1230.03 2065.64 1228.66C2067.01 1227.2 2068.69 1226.46 2070.66 1226.46C2072.64 1226.46 2074.32 1227.15 2075.69 1228.53C2077.15 1229.9 2077.88 1231.62 2077.88 1233.68C2077.88 1235.66 2077.15 1237.34 2075.69 1238.71C2074.32 1240.09 2072.64 1240.77 2070.66 1240.77C2068.69 1240.77 2067.01 1240.09 2065.64 1238.71C2064.26 1237.34 2063.57 1235.66 2063.57 1233.68Z" fill="white"/>
</svg>
