<svg width="33" height="37" viewBox="0 0 33 37" fill="none" xmlns="http://www.w3.org/2000/svg">
<path d="M21.7955 8.11363C21.7955 10.2655 20.9123 12.3292 19.3402 13.8508C17.7681 15.3724 15.6359 16.2273 13.4126 16.2273C11.1894 16.2273 9.05713 15.3724 7.48503 13.8508C5.91293 12.3292 5.02974 10.2655 5.02974 8.11363C5.02974 5.96176 5.91293 3.89803 7.48503 2.37643C9.05713 0.854826 11.1894 0 13.4126 0C15.6359 0 17.7681 0.854826 19.3402 2.37643C20.9123 3.89803 21.7955 5.96176 21.7955 8.11363Z" fill="white"/>
<path d="M21.6831 19.4569L5.02974 19.4727C3.69577 19.4727 2.41644 19.9856 1.47318 20.8986C0.529918 21.8115 0 23.0498 0 24.3409V24.5843C0 24.5843 -0.000868705 33.9712 13.4118 33.9712C24.1412 33.9712 26.2917 27.551 26.0258 24.3409C25.9437 23.4097 25.924 21.9494 24.9683 20.8986C24.0357 19.8731 23.0048 19.6295 21.6831 19.4569Z" fill="white"/>
<path d="M21.2128 22.4409L20.8665 22.8015L21.2128 22.4409C20.2943 21.5588 18.8132 21.5588 17.8947 22.4409C16.9634 23.3354 16.965 24.7946 17.8981 25.6871L21.5074 29.1395L17.8981 32.5919C16.965 33.4844 16.9634 34.9437 17.8947 35.8381C18.8132 36.7203 20.2943 36.7203 21.2128 35.8381L24.8541 32.3407L28.5138 35.8413C29.4335 36.721 30.9155 36.7123 31.8241 35.8213C32.7318 34.9311 32.7237 33.4967 31.8068 32.616L28.1871 29.1395L31.8068 25.663C32.7237 24.7823 32.7318 23.3479 31.8241 22.4577C30.9155 21.5667 29.4335 21.5581 28.5138 22.4377L24.8541 25.9383L21.2128 22.4409Z" fill="white" stroke="#3292E6"/>
</svg>
