<svg width="40" height="48" viewBox="0 0 40 48" fill="none" xmlns="http://www.w3.org/2000/svg">
<path d="M5 0C2.25 0 0.0250006 2.16 0.0250006 4.8L0 43.2C0 45.84 2.225 48 4.975 48H35C37.75 48 40 45.84 40 43.2V16.392C40 15.12 39.475 13.896 38.525 13.008L26.45 1.416C25.525 0.504 24.25 0 22.925 0H5ZM22.5 14.4V3.6L36.25 16.8H25C23.625 16.8 22.5 15.72 22.5 14.4Z" fill="#D9D9D9"/>
<path d="M12.9213 22.1111C12.6466 22.5222 12.5 23.0055 12.5 23.5C12.5 24.163 12.7634 24.7989 13.2322 25.2678C13.7011 25.7366 14.337 26 15 26C15.4945 26 15.9778 25.8534 16.3889 25.5787C16.8 25.304 17.1205 24.9135 17.3097 24.4567C17.4989 23.9999 17.5484 23.4972 17.452 23.0123C17.3555 22.5273 17.1174 22.0819 16.7678 21.7322C16.4181 21.3826 15.9727 21.1445 15.4877 21.048C15.0028 20.9516 14.5001 21.0011 14.0433 21.1903C13.5865 21.3795 13.196 21.7 12.9213 22.1111Z" fill="white"/>
<path d="M28.3287 24.8889C28.6034 24.4778 28.75 23.9945 28.75 23.5C28.75 22.837 28.4866 22.2011 28.0178 21.7322C27.5489 21.2634 26.913 21 26.25 21C25.7555 21 25.2722 21.1466 24.8611 21.4213C24.4499 21.696 24.1295 22.0865 23.9403 22.5433C23.7511 23.0001 23.7016 23.5028 23.798 23.9877C23.8945 24.4727 24.1326 24.9181 24.4822 25.2678C24.8319 25.6174 25.2773 25.8555 25.7623 25.952C26.2472 26.0484 26.7499 25.9989 27.2067 25.8097C27.6635 25.6205 28.054 25.3001 28.3287 24.8889Z" fill="white"/>
<path d="M28.2948 32.6206C28.2111 32.3791 28.0788 32.1573 27.9062 31.9688C27.0273 30.885 25.9175 30.0111 24.6578 29.4109C23.3982 28.8107 22.0204 28.4992 20.625 28.4992C19.2296 28.4992 17.8519 28.8107 16.5922 29.4109C15.3325 30.0111 14.2227 30.885 13.3438 31.9688C13.1712 32.1573 13.0389 32.3791 12.9552 32.6206C12.8715 32.8621 12.838 33.1182 12.8568 33.3731C12.8757 33.628 12.9464 33.8764 13.0648 34.1029C13.1831 34.3295 13.3465 34.5294 13.5449 34.6905C13.7434 34.8517 13.9727 34.9705 14.2187 35.0397C14.4648 35.109 14.7224 35.1272 14.9757 35.0933C15.229 35.0593 15.4728 34.9739 15.6919 34.8424C15.911 34.7108 16.101 34.5358 16.25 34.3281C16.7789 33.6782 17.446 33.1542 18.2028 32.7944C18.9596 32.4345 19.787 32.2478 20.625 32.2478C21.463 32.2478 22.2904 32.4345 23.0472 32.7944C23.804 33.1542 24.4711 33.6782 25 34.3281C25.149 34.5358 25.339 34.7108 25.5581 34.8424C25.7772 34.9739 26.021 35.0593 26.2743 35.0933C26.5276 35.1272 26.7852 35.109 27.0313 35.0397C27.2773 34.9705 27.5066 34.8517 27.7051 34.6905C27.9035 34.5294 28.0669 34.3295 28.1852 34.1029C28.3036 33.8764 28.3743 33.628 28.3932 33.3731C28.412 33.1182 28.3785 32.8621 28.2948 32.6206Z" fill="white"/>
</svg>
